<?xml version="1.0" encoding="utf-8"?>
<!-- Generator: Adobe Illustrator 22.0.1, SVG Export Plug-In . SVG Version: 6.00 Build 0)  -->
<svg version="1.1" id="Layer_1" xmlns="http://www.w3.org/2000/svg" xmlns:xlink="http://www.w3.org/1999/xlink" x="0px" y="0px"
	 viewBox="0 0 59.1 29.6" style="enable-background:new 0 0 59.1 29.6;" xml:space="preserve">
<style type="text/css">
	.st0{fill:#003876;}
	.st1{fill:#FFFFFF;}
</style>
<path class="st0" d="M21.3,29.4c0,0-0.1,0-0.1,0c-0.4-0.1-0.4-0.8-0.4-0.9l0-5.1l-11.2,0c-3.7-0.2-7.2-2.7-8.6-6.4
	c-1.4-3.7-0.7-8.1,1.9-11c1.8-2,4.7-3.3,7.4-3.3h10.5l0.2,0h1.2l3.3-2.4c0.2-0.2,0.5-0.2,0.8-0.2h3.7c0.8,0,1.4,0.6,1.4,1.4
	c0,0.1,0,0.1,0,0.2l-0.1,0.9h1.7v0h16.4c3.1,0,6.1,1.6,7.9,4.2c2.2,3.2,2.5,7.5,0.7,11c-0.9,1.7-2.2,3.1-3.7,4
	c-0.8,0.5-1.6,0.8-2.5,1.1c-1,0.3-2,0.3-2.9,0.3l-17.7,0l-8.5,5.4C22.2,29,21.7,29.4,21.3,29.4"/>
<path class="st1" d="M29.9,0.4C30.5,0.4,31,1,31,1.7c0,0.1,0,0.1,0,0.2L30.9,3h1.7v0h16.6c3,0,5.9,1.5,7.7,4.1
	c2.2,3.1,2.5,7.4,0.7,10.8c-0.8,1.6-2.1,3-3.6,3.9c-0.8,0.5-1.6,0.8-2.5,1c-1,0.3-2,0.3-2.8,0.3l-17.8,0l-8.6,5.5
	c0,0-0.6,0.5-0.9,0.5c0,0,0,0-0.1,0c-0.3-0.1-0.3-0.7-0.3-0.7l0-5.3l-11.4,0c-3.7-0.2-7.1-2.7-8.5-6.2C-0.3,13.4,0.4,9.1,3,6.3
	C4.7,4.3,7.5,3,10.2,3h10.7v0h1.2l3.4-2.4c0.2-0.1,0.4-0.2,0.7-0.2H29.9 M29.9,0h-3.7c-0.3,0-0.6,0.1-0.9,0.3L22,2.6h-1.1h-0.4v0
	H10.2C7.4,2.6,4.5,3.9,2.7,6c-2.6,3-3.4,7.5-1.9,11.2c1.5,3.7,5,6.3,8.8,6.5l0,0h0l11,0l0,4.8c0,0.5,0.1,1,0.6,1.1
	c0.1,0,0.1,0,0.2,0c0.4,0,1-0.4,1.1-0.5l8.5-5.4l17.7,0c0.9,0,1.9,0,2.9-0.3c0.9-0.2,1.8-0.6,2.6-1.1c1.6-1,2.9-2.4,3.8-4.1
	c1.8-3.6,1.6-8-0.7-11.3c-1.9-2.7-4.9-4.3-8.1-4.3H33l-0.4,0h-1.2l0.1-0.7c0-0.1,0-0.2,0-0.2C31.4,0.7,30.7,0,29.9,0"/>
<path class="st1" d="M46.6,18.4h-1.8l-2.6-3.5h-1.2v3.5h-1.5V9.9h4.7c0.6,0,1.2,0.2,1.6,0.7c0.4,0.5,0.7,1.1,0.7,1.7
	c0,0.7-0.2,1.3-0.7,1.7s-1,0.7-1.6,0.7H44L46.6,18.4z M40.9,13.5h3.2c0.3,0,0.5-0.1,0.7-0.3c0.2-0.2,0.3-0.4,0.3-0.7
	c0-0.3-0.1-0.5-0.3-0.7c-0.2-0.2-0.4-0.3-0.7-0.3h-3.2V13.5z"/>
<polygon class="st1" points="21.5,5.8 22.3,9.2 24.8,7.6 23.2,22.1 27,21.3 29,2.3 26.5,2.3 "/>
<polygon class="st1" points="10,18.4 5.3,18.4 5.3,9.9 6.9,9.9 6.9,16.8 10,16.8 "/>
<polygon class="st1" points="34.4,8.9 32.7,8.9 31,7.1 33.1,7.1 "/>
<path class="st1" d="M15,9.9c-1.1,0-2.2,0.2-3.1,0.7l-0.3,0.1l0.5,1.1l0.2-0.1c0.2-0.1,0.2-0.1,0.3-0.1c0.1,0,0.2-0.1,0.3-0.1
	c0.1,0,0.3-0.1,0.5-0.1c0.2,0,0.4-0.1,0.7-0.1c0.3,0,0.6-0.1,1-0.1c0.3,0,0.6,0,0.9,0.1c0.7,0.2,1.1,0.7,1.2,1.5h-2.4
	c-1.1,0-2,0.2-2.7,0.7c-0.7,0.5-1.1,1.2-1.1,2c0,0.8,0.3,1.5,1,2.1c0.6,0.5,1.5,0.8,2.6,0.8c0.2,0,0.5,0,0.7-0.1
	c0.2,0,0.4-0.1,0.6-0.1c0.2-0.1,0.4-0.1,0.5-0.2c0.2-0.1,0.3-0.2,0.5-0.3c0.1-0.1,0.2-0.2,0.4-0.3l0,0.9h1.5v-4.8
	C18.8,11.2,17.5,9.9,15,9.9 M17.3,15.8c0,0-0.8,1.2-2.4,1.2c-1.6,0-2.4-0.4-2.4-1.3c0-0.9,0.3-1.7,4.8-1.4V15.8z"/>
<path class="st1" d="M32.3,12"/>
<path class="st1" d="M34.1,16.9c-0.7,0-1.2-0.2-1.7-0.7c-0.4-0.4-0.6-0.8-0.8-1.3h6.5v-0.8c0-1.2-0.4-2.2-1.2-3
	c-0.8-0.8-1.7-1.3-2.9-1.3c-1.1,0-2.1,0.4-2.9,1.2c-0.8,0.8-1.2,1.8-1.2,3c0,1.2,0.4,2.2,1.2,3c0.8,0.8,1.8,1.2,2.9,1.2
	c1.2,0,2.2-0.5,3.1-1.5l-1.3-0.8C35.3,16.6,34.7,16.9,34.1,16.9 M32.3,12L32.3,12c0.5-0.5,1.1-0.7,1.7-0.7c0.7,0,1.2,0.2,1.7,0.7
	c0.4,0.4,0.7,0.8,0.8,1.4h-5C31.7,12.9,31.9,12.4,32.3,12"/>
<path class="st1" d="M49.8,12"/>
<path class="st1" d="M51.5,16.9c-0.7,0-1.2-0.2-1.7-0.7c-0.4-0.4-0.6-0.8-0.8-1.3h6.5v-0.8c0-1.2-0.4-2.2-1.2-3
	c-0.8-0.8-1.7-1.3-2.9-1.3c-1.1,0-2.1,0.4-2.9,1.2c-0.8,0.8-1.2,1.8-1.2,3c0,1.2,0.4,2.2,1.2,3c0.8,0.8,1.8,1.2,2.9,1.2
	c1.2,0,2.2-0.5,3.1-1.5l-1.3-0.8C52.8,16.6,52.2,16.9,51.5,16.9 M49.8,12L49.8,12c0.5-0.5,1.1-0.7,1.7-0.7c0.7,0,1.2,0.2,1.7,0.7
	c0.4,0.4,0.7,0.8,0.8,1.4h-5C49.1,12.9,49.4,12.4,49.8,12"/>
</svg>
