<?xml version="1.0" encoding="utf-8"?>
<!-- Generator: Adobe Illustrator 22.0.1, SVG Export Plug-In . SVG Version: 6.00 Build 0)  -->
<svg version="1.1" id="Layer_1" xmlns="http://www.w3.org/2000/svg" xmlns:xlink="http://www.w3.org/1999/xlink" x="0px" y="0px"
	 viewBox="0 0 50.3 37.5" style="enable-background:new 0 0 50.3 37.5;" xml:space="preserve">
<style type="text/css">
	.st0{fill:#FFFFFF;}
	.st1{fill:#ED3024;}
</style>
<rect y="12.4" class="st0" width="2.5" height="9.6"/>
<path class="st0" d="M10.3,19.9c0-0.3-0.1-0.4-0.2-0.5c-0.2-0.1-0.6-0.2-1.3-0.2H7.6c-0.5,0-0.9,0.1-1,0.2c-0.2,0.1-0.3,0.3-0.3,0.6
	c0,0.2,0.1,0.4,0.3,0.5c0.2,0.1,0.5,0.1,1,0.1h0.7c0.8,0,1.3-0.1,1.6-0.2C10.2,20.3,10.3,20.1,10.3,19.9 M7.6,17.7
	c0.8,0,1.4,0,1.7,0.1c0.4,0.1,0.7,0.2,0.9,0.4v-0.6c0-0.3-0.1-0.6-0.2-0.7c-0.2-0.1-0.5-0.2-1-0.2H7.6c-0.4,0-0.6,0-0.8,0.1
	c-0.1,0.1-0.2,0.2-0.2,0.4H4.1c0-0.9,0.2-1.5,0.7-1.8c0.4-0.3,1.2-0.4,2.3-0.4h2.9c1.8,0,2.7,0.8,2.7,2.4v4.4h-2.4v-0.8
	C10,21.7,9.7,21.9,9.4,22c-0.3,0.1-0.7,0.2-1.3,0.2H6.4c-0.9,0-1.5-0.1-1.8-0.4c-0.5-0.3-0.7-0.8-0.7-1.6v-0.6
	c0-0.8,0.3-1.4,0.9-1.7C5.3,17.8,6.2,17.7,7.6,17.7"/>
<rect y="12.4" class="st1" width="2.5" height="9.6"/>
<path class="st1" d="M10.3,19.9c0-0.3-0.1-0.4-0.2-0.5c-0.2-0.1-0.6-0.2-1.3-0.2H7.6c-0.5,0-0.9,0.1-1,0.2c-0.2,0.1-0.3,0.3-0.3,0.6
	c0,0.2,0.1,0.4,0.3,0.5c0.2,0.1,0.5,0.1,1,0.1h0.7c0.8,0,1.3-0.1,1.6-0.2C10.2,20.3,10.3,20.1,10.3,19.9 M7.6,17.7
	c0.8,0,1.4,0,1.7,0.1c0.4,0.1,0.7,0.2,0.9,0.4v-0.6c0-0.3-0.1-0.6-0.2-0.7c-0.2-0.1-0.5-0.2-1-0.2H7.6c-0.4,0-0.6,0-0.8,0.1
	c-0.1,0.1-0.2,0.2-0.2,0.4H4.1c0-0.9,0.2-1.5,0.7-1.8c0.4-0.3,1.2-0.4,2.3-0.4h2.9c1.8,0,2.7,0.8,2.7,2.4v4.4h-2.4v-0.8
	C10,21.7,9.7,21.9,9.4,22c-0.3,0.1-0.7,0.2-1.3,0.2H6.4c-0.9,0-1.5-0.1-1.8-0.4c-0.5-0.3-0.7-0.8-0.7-1.6v-0.6
	c0-0.8,0.3-1.4,0.9-1.7C5.3,17.8,6.2,17.7,7.6,17.7"/>
<rect x="12.8" class="st1" width="37.5" height="37.5"/>
<path class="st0" d="M27.8,22.1V21c-0.2,0.4-0.6,0.8-1,0.9c-0.4,0.2-1,0.3-1.7,0.3c-1.1,0-1.9-0.1-2.5-0.4c-0.9-0.4-1.3-1.3-1.3-2.6
	v-3.9h2.5v3.9c0,0.7,0.5,1,1.6,1h0.6c0.5,0,1-0.1,1.3-0.4c0.3-0.3,0.4-0.6,0.4-1.1v-3.4h2.5v6.8H27.8z"/>
<path class="st0" d="M34.1,15.3v1.1c0.2-0.4,0.6-0.8,1-0.9c0.4-0.2,1-0.3,1.7-0.3c1.1,0,1.9,0.1,2.5,0.4c0.9,0.4,1.3,1.3,1.3,2.6
	v3.9H38v-3.9c0-0.7-0.5-1-1.6-1h-0.6c-0.6,0-1,0.1-1.3,0.4c-0.3,0.3-0.4,0.6-0.4,1.1v3.4h-2.5v-6.8H34.1z"/>
<path class="st0" d="M46,16.8c-0.8,0-1.3,0.1-1.5,0.2c-0.2,0.1-0.3,0.4-0.3,0.8h3.7c0-0.4-0.1-0.7-0.4-0.8
	C47.2,16.9,46.7,16.8,46,16.8 M44.7,15.2h1.8c1.4,0,2.4,0.2,2.9,0.6c0.6,0.4,0.9,1.2,0.9,2.4v1.1h-6.1v0.4c0,0.3,0.1,0.6,0.4,0.7
	c0.2,0.1,0.6,0.2,1.2,0.2h0.8c0.6,0,1-0.1,1.2-0.2c0.1-0.1,0.2-0.3,0.2-0.5h2.4v0.3c0,0.8-0.3,1.3-1,1.7c-0.5,0.3-1.3,0.4-2.4,0.4
	H45c-1.1,0-1.8-0.2-2.3-0.5c-0.7-0.5-1.1-1.4-1.1-2.7v-0.7c0-1.2,0.3-2,0.9-2.5C42.9,15.4,43.7,15.2,44.7,15.2"/>
</svg>
