<svg id="logo_Site-LeVif-FR" xmlns="http://www.w3.org/2000/svg" viewBox="0 0 214 60"><title>logo</title><path d="M200.69 31.58c.68 0 1 .19 1 .69V33h-5.35v-.74c0-.49.31-.69 1-.69h3.35zM214 0v60H0V0h214zM41.52 32.07h-5v4.18c0 1.78-1.55 6-5.27 6h-8.33V19.16c0-1.31.08-1.55 1.63-1.54h3.87v-5.34H9.29v5h4.49c1 0 1.08.23 1.08 1.78s.07 17.84 0 21.09v.35c0 1.55-.08 1.78-1.08 1.78H9.29v5h32.23V32.07zM76.2 12.29H44v5h4.49c1 0 1.08.23 1.08 1.78s.07 17.84 0 21.09v.34c0 1.55-.08 1.78-1.08 1.78H44v5h32.2V32.07h-5v4.18c0 1.78-1.55 6-5.27 6H57.6v-11a13.07 13.07 0 0 1 1.94-.08c1.55 0 2.63 1.62 2.71 3s.08 4.64.08 4.64h5.19v-19h-5.35v3c0 1.62-1.08 3.25-2.48 3.25H57.6v-8.74H66c3.72 0 5.27 4.26 5.27 6v4.18h5V12.29zm52.91 0h-17.72v5h4.41c1.16 0 1.24.54.85 1.62-.87 2.44-5.88 16.63-5.88 16.63S106 21.32 105.2 19c-.62-1.86-.15-1.7 1.7-1.7h3.1v-5H90.79v5H94c1.24 0 1.86.08 2.63 2.32.46 1.24 7.66 22.48 9.47 27.67h7.51c2.5-7 9.74-26.82 10.27-28.19.7-1.78 1.32-1.78 2.32-1.78h3v-5zm22.69 29.94s-2.44-.1-4-.1-1.63-.23-1.63-1.54V18.87c0-1.31.08-1.55 1.63-1.55h3.87v-5H132.5v5h4c1.47 0 1.7.47 1.7 1.39v22c0 .93-.23 1.39-1.7 1.4h-4v5.22h19.28zm35.42-29.94H155v5h4.49c1 0 1.08.23 1.08 1.78s.08 20.35 0 21.58a1.55 1.55 0 0 1-1.57 1.52h-3.9v5.1h19.14v-5.1h-4c-1.24 0-1.55-.23-1.55-1.32v-9.53a13 13 0 0 1 1.94-.08c1.55 0 2.63 1.62 2.71 3s.08 4.64.08 4.64h5.19V19.79h-5.34v3c0 1.62-1.08 3.25-2.48 3.25h-2.09v-8.72h8.3c3.72 0 5.27 4.26 5.27 6v4.18h5V12.29h-.1zm18.7-4.5h-14v44.42h14V7.79zm-13.31.74h12.57V33h-2v-1.15c0-1.49-1-2.12-2.6-2.12h-3.26c-1.6 0-2.58.63-2.58 2.12V35h10.38v16.47h-12.49V8.53zm2.16 26.79v1.93l2.91.84-2.91.84v2l4-1.41 4.49 1.48v-2l-3.26-.84 3.26-.87v-2l-4.46 1.45zm8.44-8h-5.83c-.68 0-1-.24-1-.79V26h-1.58v1.08c0 1.52.89 2.15 2.45 2.15h6v-1.88zm-8.55-14.92a2.22 2.22 0 0 0 2.34 2.45h.11a2.21 2.21 0 0 0 2.24-1.52l.65-1.21a.77.77 0 0 1 .77-.49h.23a.67.67 0 0 1 .76.66.69.69 0 0 1-.7.68h-.86v1.81h.71a2.26 2.26 0 0 0 2.39-2.5 2.23 2.23 0 0 0-2.36-2.47h-.3a2.18 2.18 0 0 0-2.29 1.51l-.64 1.24a.71.71 0 0 1-.6.46H197a.63.63 0 0 1-.74-.63.72.72 0 0 1 .76-.68h.65V9.87h-.54a2.25 2.25 0 0 0-2.39 2.48v.07zm0 5.46a2.22 2.22 0 0 0 2.34 2.45h.11a2.21 2.21 0 0 0 2.24-1.52l.65-1.21a.77.77 0 0 1 .77-.49h.23a.68.68 0 0 1 .76.67.7.7 0 0 1-.7.7h-.86v1.81h.71a2.27 2.27 0 0 0 2.39-2.52 2.24 2.24 0 0 0-2.36-2.48h-.3a2.18 2.18 0 0 0-2.29 1.51l-.58 1.22a.71.71 0 0 1-.68.48H197a.63.63 0 0 1-.74-.63v-.05a.72.72 0 0 1 .76-.68h.65v-1.79h-.52a2.25 2.25 0 0 0-2.39 2.48v.07zm0 5.48a2.36 2.36 0 0 0 2.54 2.55h3.6a2.38 2.38 0 0 0 2.54-2.57 2.33 2.33 0 0 0-2.55-2.54h-.55v1.82h.57a.73.73 0 0 1 .9.67.76.76 0 0 1-.78.74h-1.5v-3.25h-2.23a2.36 2.36 0 0 0-2.54 2.55zm0 20.34a2.36 2.36 0 0 0 2.54 2.55h3.6a2.38 2.38 0 0 0 2.54-2.57 2.33 2.33 0 0 0-2.55-2.54h-.55v1.82h.57a.73.73 0 0 1 .9.67.76.76 0 0 1-.78.74h-1.5v-3.26h-2.23a2.36 2.36 0 0 0-2.54 2.55zm-1 6.5h9.55V48.3h-9.55v1.88zm3.5-5.87h1v-1.43h-1a.73.73 0 0 0-.89.69v.06a.74.74 0 0 0 1 .7zm0-20.34h1v-1.43h-1a.73.73 0 0 0-.89.69v.06a.74.74 0 0 0 1 .71z" fill="#ec1c24"/><path fill="#231f20" d="M193.67 47.74h3.6l-3.6-2.69v2.69z"/></svg>