<svg id="Layer_1" data-name="Layer 1" xmlns="http://www.w3.org/2000/svg" viewBox="0 0 1683.78 819.13"><defs><style>.cls-1{fill:#fff;}.cls-2{fill:#0e7abf;}.cls-3{fill:#53c0e7;}.cls-4{fill:#010101;}.cls-5{fill:#11101a;}</style></defs><rect class="cls-1" width="1683.78" height="819.13"/><path class="cls-1" d="M1681.36,657.61l-1270,19.45s-73.11,25.88-135.41,31.19l-2.66.36c-25.61,2.66-86.23,4.34-99.39,3.68-6-.31-13.47-.31-19.5-.31-40.1,100.93-137.76,95.26-138.77,95.26l-8.42-.71,1.33-8C8.88,797.49,22.7,715,12.6,663c-2-11.39-10.81-68.11-10.46-77.14a59.12,59.12,0,0,1,49.5-58.36h.66c22.91-2,46.17,11.08,66,36.87,10.45-11.7,32-38.55,56.58-87.21-18.88-7.35-31.28-21.13-37-40.94a77.14,77.14,0,0,1-2.35-15.06v-1.69c0-34.87,31.68-57,59.59-76.83C214,329.54,242,309.73,250,294c18.21-36.21,34.34-66.74,53.92-97.93l9.75-15.77C342.62,133.6,413.34,40.72,474.31,20.61l-.66.31,3.72-1.69,4-1C536,4.17,582.43,10.5,620.14,37.05,637,34,660.9,33,686.51,49.76h.31c.67.36,19.54,14.45,24.24,37.58l.71,8.06v1.69c0,14.4-5,27.16-10.46,36.55A64.68,64.68,0,0,1,732,149.73c11.13,10.1,22.56,27.51,27.26,34.91,8.1-.35,131.37-3.72,131.37-3.72l7.4-.35s.31,14.8.67,20.82c12.14.71,27.6,3.68,41.07,15.78,19.23,17.1,19.9,36.91,20.21,51.31,0,0,.35,6.38.35,12.09,19.85-.35,88.93-2.34,328.39-9.08,33-1,57.91,1,78.11,13.12a86.28,86.28,0,0,1,24.24-12.1c11.48-3.37,19.23-3.68,48.17-5l228-7,4.43,153s-20.91.66-29.33,1l3.06,111.67c8.42,0,28.93-.67,28.93-.67L1678,656.94s-288.63,3.68-300.06,3.68"/><path class="cls-2" d="M1186,612.68,1630.18,607l-1.06-29.86-615.91,17.45L143.94,622.38Z"/><path class="cls-3" d="M766.67,288.59l1.33,33.9-20.87.67-.36-7.36c-3.36,6.69-4.69,7.71-11.43,8H731c-7.4,0-10.11-.66-12.15-3.37-1.68-2.3-2.7-7.35-3-13.73l-.66-18.79-.36-17.41c-.31-6.38.36-9.4,2.35-11.44a13.76,13.76,0,0,1,9.13-3.32h4.34c6.74-.35,9.13.67,12.81,5l1.68,2-.31-7.05,20.87-.71,1,33.54Zm-25.26,18.79c3.37,0,4.7-2.7,4.35-8l-.31-10.77-.36-10c-.31-5-2-7.36-5-7.36s-4.43,2.35-4.43,7.67l.36,9.74.35,11.44c.31,5,1.69,7.35,5,7.35Zm83.84-21.44,1.68,34.87-20.87.66-.35-7.35c-3.37,6.73-4.7,7.71-11.44,8.06h-4.38c-7.4,0-10.1-.71-12.14-3.41-1.69-2.3-2.66-7.67-3-13.74l-.35-16.75-.67-19.45c-.31-6.38.36-9.08,2.35-11.43s4.74-3.32,8.78-3.32h4.34c7.09-.31,9.13.66,12.85,5l1.68,2L803,233.61l20.92-.67,1.33,53Zm-24.9,19.8c3,0,4.34-2.7,4-7.75L804,287.62l-.31-10.41c0-5-1.68-7.36-4.69-7.36s-4.44,2.31-4.44,7.71l.36,10.37.35,10.41c.31,5.05,1.69,7.4,5.06,7.4Zm63.4,14.4-27.16.67-1.28-35.54-.85-31.9,26.68-.67,1.33,30.53ZM833.84,247.3l26.72-.58-.53-14.4-26.72.58Z"/><path class="cls-3" d="M913.82,300c.36,11.38.36,12.76-1.68,14.75-2.7,2.7-7.09,3.68-17.19,4l-11.79.31c-10.1.36-14.8-.66-17.5-3s-3-3.68-3.37-15.06l-.66-18.79-.36-11.08c-.31-11.43-.31-12.76,2.39-15.46,2.35-2.66,7.05-3.68,17.15-4l11.79-.36c10.1-.31,14.53.67,17.19,3s3,3.72,3.37,15.46v4.65l.66,25.53Zm-20.56-3.68-.66-18.12v-3c-.31-5-1.69-7-5.36-7-3.41,0-4.74,2.35-4.74,7.35v4.39l.35,16.75c0,5,1.68,7,5,7S893,301.36,893.26,296.35ZM709.73,257.09l-1.33,23.13a112.76,112.76,0,0,0-15.86-5.67l.35,12.4,1,37.89-20.83.71-1-40.32-.66-27.48,20.87-.66.31,8.73c4.08-6.74,7.44-9.08,13.47-9.39a8,8,0,0,1,3.72.66Z"/><path class="cls-2" d="M704.06,525.79l13.47-.36,1.68,51.67-42.76,1.33c-30.3.7-32.65.35-38.41-1-20.21-5.36-25.61-22.15-27.61-82.86l-2-60.39-.31-15.42c-.66-13.78.31-37.93,2-45.95,2.7-16.44,9.44-25.21,22.6-29.2,5.71-1.69,9.74-2,36-3.37l40.76-1.33,1.64,51.67-11.08.31c-17.54.7-20.2,1-24.28,5.4-4.34,4.34-4.7,7.05-4,24.15l.66,20.47L674,498c.35,16.75,1.37,19.81,5.4,23.79,4.39,4.35,7.09,4.7,24.6,4Zm180.12-72.14.66,21.13c1.38,39.93-.31,54.73-7.4,71.12-8.1,18.08-24.23,26.85-52.86,27.83l-28.67,1c-28.58.66-45.41-7-54.5-24.46-8.11-15.78-10.45-30.89-11.78-70.45l-1-33.9-.36-10.41c-1.33-39.22.31-54.37,7.4-70.77,8.11-18.08,24.28-26.85,52.91-27.82l28.62-1c28.63-1,45.46,6.38,54.55,24.15,8.06,15.77,10.46,30.84,11.78,70.45l.67,23.13Zm-62.3,53-1.68-55L818.87,404c-.36-11.39-5.76-18.79-14.18-18.48s-13.47,8.07-13.12,19.46l1.33,45.28,1.68,57c.36,11.74,6.08,18.79,14.18,18.48C817.18,525.43,822.23,518.08,821.88,506.64Zm539.87-76.48,4,126.16-10.41.31,8.07-.31V557l-59.29,2v-.66h-2.35l-1.68-49.63c-6.38.31-12.45.31-18.88.67a16.66,16.66,0,0,1-6-.36l24.91-.66-26.94,1,1.68,50.29h-2.35v.71c-19.85.31-39.39,1-59.28,1.64v-.67l33.67-1-36.38,1-3.68-115.38-2.34-73.82c-.71-20.78,2.34-33.19,9.74-39.88q2.28-1.65,4.7-3.06a1.11,1.11,0,0,0-1,.36,45.81,45.81,0,0,1,21.18-7.4l79.18-2.66c10.77.35,22.2,1.68,28.62,8.06-.35,0-.35-.35-.71-.35.36.35.71.35,1.07.66,7.71,6,11.74,18.44,12.4,39.26l2,63.05ZM1345.14,327c.88.89,1.77.89,2.65,1.77C1346.91,327.9,1346,327.9,1345.14,327Zm-1.69-.4a3.25,3.25,0,0,1,2.66.89A3.25,3.25,0,0,0,1343.45,326.61Zm-2.66-1c1.78,0,2.66.89,3.55.89C1343.45,326.48,1342.57,325.59,1340.79,325.59Zm-2-.66c.89,0,2.66.88,3.54.88C1341.46,324.93,1339.69,324.93,1338.8,324.93Zm-3-.67c1.77,0,3.55.89,4.43.89A8,8,0,0,0,1335.83,324.26Zm-2.7-.66c1.77,0,2.66.89,4.43.89C1336.67,323.6,1334.9,323.6,1333.13,323.6Zm-3-.67c1.46,0,2.92.89,4.43.89C1333,323.82,1331.58,322.93,1330.12,322.93Zm-3.06-.35c1.46,0,3,.89,4.43.89A7.93,7.93,0,0,0,1327.06,322.58Zm-3.68-.66c1.24.88,3.15.88,4.43.88C1326.53,322.8,1324.62,322.8,1323.38,321.92Zm-3.72.26h0Zm-4,0h0Zm-4.75-.31h0Zm-5.05,0h0Zm-.62,0h0Zm-6.07-.13c-1.73,0-3.72.88-5.76,0h5.76Zm-34,1.11h0Zm-12.85.7h0Zm-4.34.31h0Zm-3.72,1c.88-.89,2.66-.89,4.43-.89C1246.86,324,1245.08,324,1244.2,324.84Zm-3.68.31a8,8,0,0,1,4.43-.89C1243.18,324.26,1241.41,325.15,1240.52,325.15Zm-4,.35c1.46,0,2.92-.88,4.43-.88A8.12,8.12,0,0,1,1236.49,325.5Zm-4.08,1c1.77,0,2.66-.89,4.43-.89C1235.07,325.59,1233.3,325.59,1232.41,326.48Zm-2.39.35c.89,0,2.66-.88,3.54-.88A6.71,6.71,0,0,1,1230,326.83Zm-2.7.67c.88,0,2.65-.89,3.54-.89A6.67,6.67,0,0,1,1227.32,327.5Zm-2.66.66c.88,0,2.66-.88,3.54-.88C1227.32,328.16,1225.54,328.16,1224.66,328.16Zm-3,1.64c1.78-.88,2.66-.88,4.44-1.77C1225.19,328,1223.42,328.92,1221.64,329.8Zm49.85,126.55,26.94-1-.71-17.77-1.32-45c-.32-8-1.69-13.74-4-17.1a8.71,8.71,0,0,0-1.68-2h-.31a7.25,7.25,0,0,0-2-1.33H1288a5,5,0,0,0-2.35-.71,10,10,0,0,0-3-.31,11,11,0,0,0-5.71,1.33,6,6,0,0,0-2.39,1.69c-.67.66-1,1.68-1.69,2.35-2.35,3.67-3.37,9.39-3,17.1l1.33,47,.35,15.77ZM1491.76,501l2,51.67h-2.35L1451.35,554c-30.31.66-32.66.31-38.42-1-1.37-.31-2.7-1-4-1.33h-.31c-1-.67-2.39-1-3.37-1.69h-.4c-13.73-8.06-17.81-28.18-19.49-79.49L1384,427.51l-1-32.88c-.67-13.78.31-37.93,2-45.95,2.7-16.44,9.44-25.21,22.6-29.2,5.72-1.69,9.75-2,36-3.37l40.77-1.33,1.64,51.31-11.08.36c-17.5.66-20.25,1-24.24,5.36-4.38,4.65-4.74,7-4.07,24.15l.7,21.49,1.69,56c.31,15.77,1.33,19.45,4.7,23.13l.66.7c4.39,4.35,7.09,4.66,24.59,4l10.46-.35h2.35ZM1058,405.66l1.33,47.94L1063,566.33l-64,2-3.72-113.74-1.68-51c-.31-12.76-4.35-18.78-13.48-18.43s-12.76,6.69-12.45,20.12l1.69,49.31L973.11,569l-64,2L905.4,454l-2-66.69c-.63-22.86-2-33.89-7.71-54.06l24.9-.66,35.36-1h4.38A144.7,144.7,0,0,1,967,360.42c0,.67.35,1.64.35,2.35a9.5,9.5,0,0,1,.67-3.37c3.37-13.07,8.06-20.47,16.48-24.81a.35.35,0,0,1,.36-.36.32.32,0,0,1,.31-.35c.35,0,.7-.31,1-.31a5,5,0,0,0,2-.67c.31,0,.67-.35,1-.35.67-.31,1.33-.31,2.35-.67.31-.35.31-.35.67-.35,1-.31,2-.31,3.36-.66h1c.67,0,1.69-.31,2.7-.31h1.33c1,0,2-.36,3-.36h1a19.46,19.46,0,0,1,4.38-.31h15.16a4.78,4.78,0,0,0,2,.31c.31.36,1,.36,1.32.36a16.33,16.33,0,0,0,1.73.31c.31,0,1,.35,1.33.35.67,0,1,.31,1.69.31.31,0,1,.35,1.33.35s1,.36,1.37.36c.66,0,1,.31,1.33.31.66,0,1,0,1.33.35.35,0,.66.31,1,.31a29,29,0,0,1,12.09,13.08c5.41,9.08,5.41,9.08,7.09,59.37Zm132.66-29.82-29,1,2.4,72.14,3.36,114-64,2-3.67-112.72-2.35-73.47-29,.71-1.73-51.66,122.3-3.77ZM1592.47,389l5.06,160.31-64.34,2L1528.45,403l-1-37.88-29,1-1.68-51.71,121.9-4,1.68,52-28.93.71Z"/><path class="cls-1" d="M597.23,439.25a10.06,10.06,0,0,0,10.46-9.4c3-20.16-24.91-60.74-28-65.44l-7.4-10.72-1.69,13.07c-.35,4.69-8.77,33.54-14.13,52l-1,3.67,3.37,2c11.12,6.69,26,14.4,38.37,14.76Z"/><path class="cls-4" d="M561.56,419.8c9.44,5.36,24.24,13.73,36,14.09,2.71,0,5.41-2,5.72-4.7,2.7-18.48-27.25-61.72-27.25-61.72C575,373.8,561.56,420.11,561.56,419.8Zm7.75-79.54,15.16,21.14c5.36,7.71,32,47.63,28.93,69.12A16.23,16.23,0,0,1,597.58,444h-.35c-13.78,0-29.29-8.38-41.08-15.47l-6.73-4,2.35-7.4c6.42-22.15,13.47-47.28,14.18-51l3.36-25.83Zm88.58-146.93,4,3.68-73.42,8.41-73.42-8.37,86.53-44c-.66-1,21.94-9.74,14.85-3.36-7.76,7-4.74,18.47-4.74,18.47S632.94,176.58,640,186c3,4,7.4,8.07,12.45,7.71a48.2,48.2,0,0,0,5.41-.35Z"/><path class="cls-1" d="M595.54,185.62c-28.27-5.36-31.28,11.74-31.28,11.74L617.12,199S615.75,190.67,595.54,185.62Z"/><path class="cls-2" d="M450.07,265.15l7.09,13.08,2-14.76c0-.66,10.46-69.12,125.31-97l.66-.35.67-.31c46.83-28.85,65.35-64.43,66-65.76l2.35-4.39-4.39-2.35c-.66-.31-7-3.67-17.86-3.67-10.41,0-26.27,3-44.09,18.12-9.12,7.71-16.83,14.75-23.92,21.14C545,145.69,531.56,158.1,510,165.86l-9.09,3.32c-39.79,14.44-61.63,22.15-67.7,38.95-4.74,12.71,0,28.13,16.83,57Z"/><path class="cls-4" d="M632.28,94.74c-10.46,0-24.59,3.32-40.77,16.75-33.32,28.18-48.16,48-79.09,59.06-75.46,26.81-93.67,30.18-57.6,91.9,0,0,9.39-71.78,128.94-101,45.86-28.49,64-63.72,64-63.72s-5.76-3-15.51-3Zm0-10.06a46,46,0,0,1,19.85,4l9.13,4.69-4.08,9c-.67,1.73-19.85,38.29-67.71,67.8l-1.33,1-1.68.31c-46.13,11.07-81.8,30.88-103.06,56.71-15.82,19.46-18.53,35.9-18.53,35.9l-4,29.15L446,267.81c-15.15-25.83-23.26-45.28-17.19-61.37,6.74-19.14,29.64-27.2,70.72-42,2.7-1,6.07-2.35,9.08-3.32,20.92-7.4,34-19.14,52.2-35.89,6.78-6.38,14.84-13.43,23.93-21.14C604,88,621.2,84.68,632.28,84.68Z"/><path class="cls-2" d="M72.55,730.72l-2.39,9.08,9.13-4.38c16.84-8.38,26.58-27.83,28.27-43.25.66-6,4.34-14.45,10.1-23.84a31.08,31.08,0,0,1,17.5-13.74q6.36-1.67,12.81-3a69.34,69.34,0,0,0,8.11-2.35C314,593.54,412.68,521.09,449.41,433.89c36.38-86.58.66-162.71-12.81-191.25a70.91,70.91,0,0,1-3.72-8c-4.38-11.43-4.69-20.78-.66-29.2C439,191.33,458.14,180,491.5,169.84c54.24-16.08,70.72-35.89,81.84-49,.67-1,1.69-1.68,2.35-2.66C585.44,106.79,601.61,97,601.61,97L606,94.38,603.3,90c-.31-.35-7.4-11.74-18.17-16.79a125.92,125.92,0,0,0-46.48-9c-59.6,0-100,43.6-114.85,62.39-2,2.35-3.72,4.34-5.36,6C401.24,149.42,374,196.39,345.33,246c-29,49.63-61.6,106.35-74.44,112.37-27.61,13.07-69.7,45.95-74.76,55-1.33,2.65-3.72,6.69-1.33,10.41,2.35,4,7.71,4,10.77,4q8.1-.19,16.18-1h2.34a18.16,18.16,0,0,1,7.4,1.33,19.81,19.81,0,0,1,12.81,14.4c8.06,32.57-37,102.67-82.2,157.7q-21.73,26.12-42.4,26.14c-24.28,0-42.1-27.82-47.15-36.24a5.66,5.66,0,0,0-5-3,5.47,5.47,0,0,0-4.43,2,6,6,0,0,0-1.33,4.7c1.73,12.05,5.72,42.94,11.48,67.09,6.73,28.53-.67,69.43-.67,69.74Z"/><path class="cls-4" d="M539.31,69.88c-49.18,0-88.57,32.21-111.48,60.08a51.28,51.28,0,0,1-5.67,6.34c-35.4,35.23-121.94,214-148.88,226.78-27.65,13.07-68.37,45.28-72.45,52.68-2.66,4.7-3.37,6.69,4.74,6.69,3.68,0,8.78-.31,15.87-1h2.65a22.29,22.29,0,0,1,9.44,1.68c46.48,19.14-11.78,112.37-67.35,179.81-17.24,20.78-33,28.18-46.48,28.18-26.94,0-45.82-28.49-51.53-38.59-.36-.31-.36-.31-.67-.31s-.66.31-.66,1c1.33,10.77,5.31,42.27,11.08,66.47,7.08,29.82-.67,71.78-.67,71.78,14.8-7,23.93-24.51,25.61-39.26,1-8.37,6.38-18.79,10.77-25.83a38.52,38.52,0,0,1,20.51-15.78,76.24,76.24,0,0,1,13.16-3.36,45.14,45.14,0,0,0,7.4-2c426.4-150.3,287-375.7,274.15-407.92s5-54.32,62-71.42,71-38.24,81.84-50.34,27.25-22.16,27.25-22.16S593.2,83,584.11,78.61c-15.82-6-30.62-8.73-44.8-8.73Zm0-10.06a132.76,132.76,0,0,1,48.83,9.4h.67A54.46,54.46,0,0,1,608.7,88l5.37,8.78-9.4,5.31s-15.15,9.4-24.59,20.16a20.43,20.43,0,0,0-2.35,2.66c-10.81,12.76-28.62,33.9-84.19,50.65-31.32,9.39-50.2,20.47-56.27,32.88-3.37,7-3,15.11,1,25.17a70.76,70.76,0,0,0,3.72,8.06c13.78,29.16,50.16,106.65,12.76,195.23-37,88.53-137,162-296.34,218.05-3,1-6.12,1.64-8.78,2.35-4.38,1-8.77,2-12.14,3a26.33,26.33,0,0,0-14.8,11.39c-5.4,9-8.77,16.79-9.44,21.8-2,17.1-12.45,38.24-31.32,47.32l-17.51,8.69,3.73-19.41c0-.71,7-40.32.66-67.8C63.12,638.16,59.08,607,57.4,594.91c0-.28,0-.57,0-.85a11,11,0,0,1,10.82-11.25,10.77,10.77,0,0,1,9.43,5.36c4.35,7.71,21.19,33.55,42.76,33.55,12.1,0,25.26-8.38,38.38-24.51,55.56-67.75,87.6-127.79,81.17-152.91a15.37,15.37,0,0,0-15.15-12.1h-1.69c-8.41.67-13.11,1-16.83,1-3.37,0-11.44,0-15.16-6.34s-.35-12.45,1.38-15.46c6-10.37,49.8-43.91,77.1-57,1.33-1,8.41-5.67,27.6-35.89q23-36.76,44.49-74.44c28.93-49.67,56.23-97,74.08-114.41,1.33-1.37,3-3.37,4.7-5.36,15.2-19.45,57.29-64.43,118.88-64.43Z"/><path class="cls-1" d="M434.92,318.46c16.53,26.19,10.46,53,10.77,53-47.15-25.47-73.07-16.75-83.84-15.73S346,352,358.49,340c34.65-26.81,76.43-21.49,76.43-21.49Z"/><path class="cls-5" d="M449.06,379.21l1.72-6.38a78.85,78.85,0,0,0-11.52-56.72l-1.33-2-2.3-.36c-1.73-.31-44.18-5.67-80.2,22.47l-.31.35c-3.06,2.7-11.79,11.08-8.11,18.79,1.37,2.7,5.05,7,15.46,5.72,1.38-.36,2.75-.36,4.43-.67,11.44-2,36-6.07,76.4,15.73l5.76,3.06Zm-65.32-30.89A117.33,117.33,0,0,0,364.87,350a17.47,17.47,0,0,1-3.73.66c-2.34.36-4,.36-4.69,0a22.84,22.84,0,0,1,5.4-6.69c27.92-21.49,60.93-21.13,70-20.47a68.71,68.71,0,0,1,9.49,40.23c-25-12.4-43.83-15.42-57.61-15.42Z"/><path class="cls-1" d="M226.8,649.9c36.69,0,109.44-6.38,180.83-50C493.5,547.23,552.79,458,583.76,334.23A275.54,275.54,0,0,1,607,271.85c10.77-20.48,14.49-21.81,32-28.54,3-1.33,6.74-2.66,10.46-4,30.31-11.43,52.2-20.47,56.89-31.55a12.25,12.25,0,0,0-.35-9c-2.35-5-6.74-12.09-14.45-12.09a23.43,23.43,0,0,0-10.45,3l-3.37,1.68c-8.11,3.68-27.3,12.77-68.37,12.77-8.42,0-17.19-.36-26.59-1-14.18-1-26.94-2-38.41-2-42.45,0-70.06,12-87.56,74.49l-.35,1.33.35,1.33c12.81,40.23,20.87,102.62-13.47,170.06-38.73,76.83-122.25,140.55-248.23,190.18l-17.5,7.09,18.88,2.65a235.09,235.09,0,0,0,30.31,1.69Z"/><path class="cls-4" d="M691.87,191.69a24.13,24.13,0,0,0-9.74,3.32c-6.74,3-26.28,14.09-72.41,14.09-8.11,0-17.19-.31-26.94-1-14.13-1-26.63-2-38.06-2-40.41,0-66,11.74-82.5,70.76,27.6,88.93,23.21,253.28-265.11,366.67,0,0,11.16,1.68,29.69,1.68,76.74,0,280.88-27.83,351.91-312,5.76-22.11,13.47-43.6,23.92-63.71,11.44-21.8,16.18-23.8,34.65-30.89,25.66-10.06,70.77-24.46,64.7-37.53-3.37-7-6.74-9.44-10.11-9.44Zm0-10.1c11.74,0,17.15,11.43,19.49,14.09a16.07,16.07,0,0,1,.36,13.11c-5.41,13.07-27.3,22.11-59.95,34.21-3.72,1.37-7.09,2.7-10.46,4-16.84,6.38-19.54,7.36-29.29,26.14a266,266,0,0,0-22.91,61.42c-31,125.13-90.92,215.7-178.17,268.69-72.4,44.27-146.13,51-183.53,51a266.23,266.23,0,0,1-31.33-1.64l-37.39-5.41,35.4-13.73c124.6-49,207.1-112.06,245.48-187.52,33.36-65.76,25.61-126.82,13.16-166.38l-1-2.71.66-3c18.21-65,48.88-78.16,92.3-78.16,11.79,0,24.55,1,38.73,2q13.62,1,26.27,1c40.06,0,58.58-8.42,66.34-12.09l2-1,1.33-.67c3.73-1.33,7.76-3.36,12.45-3.36Z"/><path class="cls-4" d="M447.73,250.71l-.67-1.33c-8.42-9.39-11.12-21.8-10.46-33.9.67-5.71,2.35-11.38,6.74-14.4,12.45-8.73,43.78,2.35,47.15,5Z"/><path class="cls-1" d="M461.86,227.89c7.45-9.75,1.68-23.13,1.68-23.48,1.69-1,11.13,3.72,11.13,3.72.66,13.07-12.81,19.76-12.81,19.76ZM445.73,206.8c5-2,9.75,5.32,9.75,5.32C456.15,216.5,440.64,208.44,445.73,206.8Z"/></svg>