<?xml version="1.0" encoding="utf-8"?>
<!-- Generator: Adobe Illustrator 15.1.0, SVG Export Plug-In . SVG Version: 6.00 Build 0)  -->
<!DOCTYPE svg PUBLIC "-//W3C//DTD SVG 1.1//EN" "http://www.w3.org/Graphics/SVG/1.1/DTD/svg11.dtd">
<svg version="1.1"
	 id="Layer_1" xmlns:svg="http://www.w3.org/2000/svg" xmlns:dc="http://purl.org/dc/elements/1.1/" xmlns:cc="http://creativecommons.org/ns#" xmlns:rdf="http://www.w3.org/1999/02/22-rdf-syntax-ns#" xmlns:sodipodi="http://sodipodi.sourceforge.net/DTD/sodipodi-0.dtd" xmlns:inkscape="http://www.inkscape.org/namespaces/inkscape" inkscape:output_extension="org.inkscape.output.svg.inkscape" sodipodi:version="0.32" inkscape:version="0.46" sodipodi:docname="rtbf.be.svg"
	 xmlns="http://www.w3.org/2000/svg" xmlns:xlink="http://www.w3.org/1999/xlink" x="0px" y="0px" width="399px" height="108.85px"
	 viewBox="-99.362 -29.387 399 108.85" enable-background="new -99.362 -29.387 399 108.85" xml:space="preserve">
<defs>
	
	
		<inkscape:perspective  id="perspective22" inkscape:vp_y="0 : 1000 : 0" inkscape:vp_x="0 : 38.466 : 1" sodipodi:type="inkscape:persp3d" inkscape:vp_z="307.92401 : 38.466 : 1" inkscape:persp3d-origin="153.96201 : 25.644 : 1">
		</inkscape:perspective>
	
		<inkscape:perspective  id="perspective2459" inkscape:vp_y="0 : 1000 : 0" inkscape:vp_x="0 : 526.18109 : 1" sodipodi:type="inkscape:persp3d" inkscape:vp_z="744.09448 : 526.18109 : 1" inkscape:persp3d-origin="372.04724 : 350.78739 : 1">
		</inkscape:perspective>
	
		<inkscape:perspective  id="perspective2509" inkscape:vp_y="0 : 1000 : 0" inkscape:vp_x="0 : 526.18109 : 1" sodipodi:type="inkscape:persp3d" inkscape:vp_z="744.09448 : 526.18109 : 1" inkscape:persp3d-origin="372.04724 : 350.78739 : 1">
		</inkscape:perspective>
	
		<inkscape:perspective  id="perspective2613" inkscape:vp_y="0 : 1000 : 0" inkscape:vp_x="0 : 526.18109 : 1" sodipodi:type="inkscape:persp3d" inkscape:vp_z="744.09448 : 526.18109 : 1" inkscape:persp3d-origin="372.04724 : 350.78739 : 1">
		</inkscape:perspective>
</defs>
<sodipodi:namedview  id="base" inkscape:cy="7.4949773" inkscape:cx="98.449201" inkscape:zoom="2.8284271" showgrid="false" guidetolerance="10.0" gridtolerance="10.0" borderopacity="1.0" pagecolor="#ffffff" bordercolor="#666666" objecttolerance="10.0" inkscape:current-layer="Layer_1" inkscape:window-y="-8" inkscape:window-x="-8" inkscape:window-width="1280" inkscape:window-height="944" inkscape:pageshadow="2" inkscape:pageopacity="0.0">
	<inkscape:grid  type="xygrid" enabled="true" visible="true" id="grid2465"></inkscape:grid>
</sodipodi:namedview>
<g id="g2619" transform="matrix(1.3246925,0,0,1.3246925,-105.18393,-197.6845)">
	
		<linearGradient id="path2467_1_" gradientUnits="userSpaceOnUse" x1="289.8701" y1="40.5122" x2="341.9488" y2="-11.4394" gradientTransform="matrix(1.5023 0 0 -1.5023 -200.9577 199.0268)">
		<stop  offset="0" style="stop-color:#54D1FB"/>
		<stop  offset="0.05" style="stop-color:#32C9FE"/>
		<stop  offset="0.1" style="stop-color:#30BEFC"/>
		<stop  offset="0.15" style="stop-color:#2EAFF9"/>
		<stop  offset="0.2" style="stop-color:#2B9FF5"/>
		<stop  offset="0.25" style="stop-color:#288EF2"/>
		<stop  offset="0.3" style="stop-color:#257EEE"/>
		<stop  offset="0.35" style="stop-color:#216CEB"/>
		<stop  offset="0.4" style="stop-color:#1E5BE7"/>
		<stop  offset="0.45" style="stop-color:#1C51E5"/>
		<stop  offset="0.5" style="stop-color:#1B49E3"/>
		<stop  offset="0.55" style="stop-color:#1541D4"/>
		<stop  offset="0.6" style="stop-color:#0E3DC1"/>
		<stop  offset="0.65" style="stop-color:#0B3BB7"/>
		<stop  offset="0.7" style="stop-color:#0537A7"/>
		<stop  offset="0.75" style="stop-color:#02359C"/>
		<stop  offset="0.8084" style="stop-color:#1144BB"/>
		<stop  offset="0.85" style="stop-color:#1F52D6"/>
		<stop  offset="0.9" style="stop-color:#295CEB"/>
		<stop  offset="0.95" style="stop-color:#2D60F2"/>
		<stop  offset="1" style="stop-color:#3566EE"/>
	</linearGradient>
	
		<path id="path2467" sodipodi:ry="18" sodipodi:type="arc" sodipodi:rx="18" sodipodi:cx="275" sodipodi:cy="188.93201" fill="url(#path2467_1_)" d="
		M305.597,168.097c0,22.665-18.316,41.119-41.12,41.119c-22.665,0-40.981-18.454-40.981-41.119
		c0-22.666,18.316-41.051,40.981-41.051C287.281,127.046,305.597,145.432,305.597,168.097z"/>
	<g id="g3" transform="matrix(0.5262402,0,0,0.5262402,80.52845,157.30305)">
		<g id="g5">
			<path id="path7" sodipodi:nodetypes="cccccccccssscccsssccccsscc" fill="#0060A1" d="M36.381,52.394
				c-1.869-1.734-3.942-2.721-6.681-2.721l-53.916,0.006h-0.039l-0.038,0.006c-1.623,0.422-3.621-0.8-5.265-1.792
				c-1.378-1.187-1.988-2.837-1.988-5V8.182l61.192,0.004c2.003,0,4.31-0.274,6.438-2.239C37.838,4.084,38.723,2,38.723-0.672
				c0-2.535-0.895-4.774-2.8-6.548c-1.771-1.905-4.01-2.798-6.546-2.798h-60.922l0.001-12.577c0-2.484-1.002-4.682-2.725-6.434
				c-1.73-1.886-3.947-2.768-6.487-2.768c-2.535,0-4.772,0.894-6.679,2.802c-1.907,1.771-2.798,4.009-2.798,6.678v73.006
				c0,11.713,5.615,17.346,17.285,17.346l62.918-0.007c2.486,0,4.554-1.002,6.438-2.725c1.756-1.73,2.771-3.948,2.771-6.353
				C39.179,56.328,38.313,54.461,36.381,52.394L36.381,52.394z"/>
			<path id="path9" fill="#0060A1" d="M87.782-9.969c-2.221,0-4.628,0.268-6.572,2.182c-1.755,1.73-2.638,3.946-2.638,6.486
				c0,2.535,0.894,4.773,2.799,6.679c1.774,1.773,4.012,2.8,6.548,2.8l1.391,0.006c0,0,0.268,0,0.495,0h33.274
				c2.215,0,3.902,0.595,5.245,1.938c1.209,1.21,1.936,2.875,1.936,5.044l0.051,27.742c0,2.157-0.611,3.806-1.986,4.991
				c-1.391,1.199-3.239,1.789-5.331,1.789H78.326c-2.275,0-4.143-0.59-5.532-1.789c-1.377-1.185-1.988-2.83-1.988-4.993
				l-0.052-65.655c0-2.353-1.001-4.554-2.725-6.437c-1.731-1.757-3.946-2.773-6.487-2.773c-2.534,0-4.772,1.026-6.678,2.931
				c-1.907,1.776-2.799,4.012-2.799,6.549v73.039c0,11.447,5.921,17.479,17.678,17.479l61.396,0.014
				c11.625,0,17.679-5.741,17.679-17.398V7.117c0-11.27-5.63-16.857-17.327-17.065L87.782-9.969L87.782-9.969z"/>
			<path id="path11" sodipodi:nodetypes="cssccccssscccccc" fill="#0060A1" d="M254.943,6.022c1.755-1.729,2.774-3.945,2.774-6.485
				c0-2.537-1.028-4.774-2.8-6.679c-2.076-1.943-4.312-2.856-6.681-2.856l-68.698,0.005c-11.3,0.263-17.221,5.936-16.911,17.065
				l-0.469,52.439c0,2.363,1.014,4.572,2.767,6.326c1.753,1.754,3.952,2.77,6.311,2.77c2.667,0,4.895-1.016,6.649-2.77
				c2.052-1.799,2.821-4.007,2.821-6.329l0.342-46.788c0-3.043,1.279-4.512,4.091-4.512l63.239-0.003
				C250.595,8.206,252.868,7.935,254.943,6.022L254.943,6.022z"/>
			<path id="path13" sodipodi:nodetypes="cccsssccsssccsccsscc" fill="#0060A1" d="M-64.984-7.405
				c-1.715-1.717-3.922-2.564-6.679-2.564c-17.415-0.018-34.966,0.041-52.38-0.027c-1.355-0.023-2.183-0.526-2.989-1.64
				c-1.698-2.473-5.343-3.327-8.165-3.327c-2.804,0-5.353,1.124-7.268,3.124c-1.858,1.944-2.183,4.086-2.183,6.588l-0.026,64.256
				c0,2.356,0.894,4.57,2.8,6.342c1.904,2.035,4.14,2.799,6.677,2.799c2.537,0,4.752-0.74,6.481-2.468
				c1.86-1.993,2.731-3.942,2.731-6.612V15.26c0-2.078,0.642-3.986,1.987-5.144c1.372-1.315,3.085-1.904,5.325-1.92h47.279
				c2.765,0,4.9-0.791,6.438-2.436c1.888-1.729,2.772-3.946,2.772-6.485S-63.078-5.497-64.984-7.405L-64.984-7.405z"/>
			<path id="path2483" fill="#FFFFFF" d="M330.462,6.285c-1.086,0-2.198,0.2-2.952,1.069c-0.99,0.846-1.488,1.931-1.488,3.107
				c0,1.175,0.503,2.269,1.502,3.134c0.733,1,1.83,1.371,3.005,1.371l0.877,0.003c0,0,0.066,0,0.112,0h15.816
				c1.084,0,2.041,0.291,2.632,1.014c0.591,0.592,1.014,1.408,1.014,2.337l0.025,13.372c0,1.058-0.43,1.731-1.038,2.311
				c-0.614,0.586-1.586,1.006-2.674,1.006h-21.327c-1.111,0-1.827-0.42-2.705-1.006c-0.607-0.58-0.776-1.254-0.776-2.311
				l-0.024-31.527c0-1.149-0.489-2.226-1.464-3.081c-0.716-0.859-1.8-1.226-2.975-1.226c-1.437,0-2.271,0.372-3.268,1.238
				c-0.997,1-1.238,1.962-1.238,3.269v34.81c0,5.597,2.833,8.683,8.452,8.683l29.246,0.007c5.618,0,8.713-2.807,8.713-8.38V14.58
				c0-5.514-2.756-8.114-8.345-8.283L330.462,6.285L330.462,6.285z"/>
			<path id="path2487" sodipodi:nodetypes="cccccsssccccsccsccsssccssscccccc" fill="#FFFFFF" d="M372.924,6.285
				c-5.62,0-8.466,2.77-8.466,8.343V35.54c0,5.514,2.751,7.999,8.342,8.3h33.774c1.087,0,2.205-0.322,3.223-1.06
				c0.989-0.978,1.223-2.087,1.223-3.261c0-1.175-0.531-2.264-1.265-3.263c-0.997-0.735-2.089-1.226-3.263-1.226h-0.593
				c0,0-0.078,0-0.122,0H376.82c-1.086,0-1.817-0.427-2.67-1.018c-0.593-0.591-0.717-1.264-0.717-2.325l-0.039-13.378
				c0-0.924,0.148-1.745,0.756-2.325c0.876-0.717,1.621-0.847,2.711-0.847h21.291c1.112,0,2.099,0.13,2.712,0.847
				c0.56,0.401,1.041,1.168,1.02,1.989c-0.014,0.563-0.437,1.091-0.895,1.436c-0.58,0.609-1.268,0.889-2.327,0.889h-18.37
				c-1.149,0-1.928,0.511-2.917,1.355c-0.992,0.847-1.224,1.914-1.224,3.092c0,1.306,0.226,2.351,1.224,3.149
				c0.999,0.979,1.824,1.509,3.263,1.509h21.756c4.514,0.186,8.506-4.951,8.506-10.313l-0.001-2.811
				c0-5.597-2.844-9.993-8.464-9.993H372.924z"/>
		</g>
		<path id="path15" fill="#0060A1" d="M234.947,33.8L234.947,33.8v-0.003c0-2.793-1.093-5.357-2.999-7.154
			c-2.128-1.885-4.498-2.766-7.604-2.766h-17.898c-2.841,0-5.213,0.881-7.342,2.766c-2.164,1.797-3.26,4.361-3.26,7.154V33.8v0.004
			c0,2.792,1.094,5.101,3.26,6.887c2.129,1.753,4.501,2.77,7.342,2.77h17.898c3.106,0,5.476-1.017,7.604-2.77
			c1.902-1.786,2.999-4.095,2.999-6.887V33.8L234.947,33.8z"/>
	</g>
	
		<path id="path2485" sodipodi:ry="4" sodipodi:type="arc" sodipodi:rx="4" sodipodi:cx="259" sodipodi:cy="183.93201" fill="#FFFFFF" d="
		M242.117,175.69c0,2.678-2.13,4.808-4.809,4.808c-2.815,0-4.947-2.13-4.947-4.808c0-2.818,2.132-4.947,4.947-4.947
		C239.987,170.743,242.117,172.873,242.117,175.69z"/>
</g>
</svg>
