<?xml version="1.0" encoding="UTF-8" standalone="no"?>
<!-- Created with Inkscape (http://www.inkscape.org/) -->
<svg
   xmlns:svg="http://www.w3.org/2000/svg"
   xmlns="http://www.w3.org/2000/svg"
   version="1.0"
   width="800"
   height="206"
   viewBox="0 0 800.53 206.526"
   id="svg2"
   xml:space="preserve">
 <defs
   id="defs4">
  <style
   type="text/css"
   id="style6" />
 </defs>
 <g
   id="Ebene_x0020_1">
  
  <polygon
   points="227.713,12.732 275.806,12.732 275.806,169.727 316.827,169.727 316.827,206.495 227.713,206.495 227.713,12.732 "
   style="fill:#00559b"
   id="polygon10" />
  <polygon
   points="107.484,12.732 223.465,12.732 223.465,50.9124 189.528,50.9124 189.528,206.495 141.434,206.495 141.434,50.9124 107.484,50.9124 107.484,12.732 "
   style="fill:#00559b"
   id="polygon12" />
  <path
   d="M 48.0936,46.6684 L 48.0936,206.4954 L 0,206.4954 L 0,12.7324 L 72.1228,12.7324 C 98.0854,13.207866 119.5517,35.5693 120.2164,63.6448 C 119.55172,80.9969 110.55669,96.663 97.599,106.0777 C 111.2686,107.05046 121.5457,120.9166 121.6282,138.6034 L 121.6282,190.9386 C 121.54572,199.29806 125.56899,207.0171 130.12472,206.4955 L 82.03112,206.4955 C 76.62027,207.01584 73.59403,201.30419 73.54673,192.3516 L 73.54673,138.6034 C 73.594034,129.15231 67.32929,121.0949 59.40283,121.6346 L 48.09353,121.6346 L 48.09353,89.1028 L 59.40283,89.1028 C 67.32928,89.127058 73.59403,79.73419 73.54673,67.8864 C 73.594034,56.5589 67.32929,47.1673 59.40283,46.67 L 48.09353,46.668787 L 48.0936,46.6684 z "
   style="fill:#00559b"
   id="path14" />
  <polygon
   points="499.272,12.732 615.251,12.732 615.251,50.9124 581.3,50.9124 581.3,206.495 533.219,206.495 533.219,50.9124 499.272,50.9124 499.272,12.732 "
   style="fill:#00559b"
   id="polygon16" />
  <polygon
   points="753.86,12.732 800.53,12.732 800.53,206.506 753.86,206.506 753.86,12.732 "
   style="fill:#00559b"
   id="polygon18" />
  <polygon
   points="664.757,148.509 640.703,12.732 589.798,12.732 640.703,206.495 690.21,206.495 741.138,12.732 690.21,12.732 664.757,148.509 "
   style="fill:#00559b"
   id="polygon20" />
  <polygon
   points="373.405,154.17 425.737,154.17 425.737,206.506 373.405,206.506 373.405,154.17 "
   style="fill:#de3e3f"
   id="polygon22" />
  <path
   d="M 404.508,144.269 C 407.21039,137.80291 407.41416,133.115 411.57813,125.8823 C 419.06671,114.0405 428.73613,113.4644 441.29113,103.248 C 461.82103,93.52279 475.75143,76.1392 475.22753,56.5723 C 475.75151,25.3917 441.80183,0.1957 400.27013,0.0004 C 358.02763,0.194468 324.07793,25.3929 323.89963,56.5723 C 324.07793,76.1392 337.99623,93.524 359.26113,103.248 C 371.09073,113.4644 380.75043,114.0406 388.94983,125.8823 C 392.41515,133.11374 392.60437,137.8029 394.61054,144.269 L 404.50799,144.269 L 404.508,144.269 z "
   style="fill:#de3e3f"
   id="path24" />
 </g>
</svg>