<?xml version="1.0" encoding="utf-8"?>
<!-- Generator: Adobe Illustrator 12.0.0, SVG Export Plug-In . SVG Version: 6.00 Build 51448)  -->
<!DOCTYPE svg PUBLIC "-//W3C//DTD SVG 1.1//EN" "http://www.w3.org/Graphics/SVG/1.1/DTD/svg11.dtd" [
	<!ENTITY ns_svg "http://www.w3.org/2000/svg">
	<!ENTITY ns_xlink "http://www.w3.org/1999/xlink">
]>
<svg  version="1.1" id="Calque_1" xmlns="&ns_svg;" xmlns:xlink="&ns_xlink;" width="566.027" height="179.296"
	 viewBox="0 0 566.027 179.296" overflow="visible" enable-background="new 0 0 566.027 179.296" xml:space="preserve">
<path fill="#F26721" d="M531.358,170.792c0,4.696-3.807,8.504-8.504,8.504H8.504c-4.696,0-8.504-3.808-8.504-8.504V51.737
	c0-4.697,3.808-8.504,8.504-8.504h514.351c4.697,0,8.504,3.807,8.504,8.504V170.792z"/>
<path fill="#F26721" d="M499.964,75.708c-20.373,27.876,12.467,45.401,27.373,3.651c1.825-5.11,7.296-47.088-38.691-55.848
	C446.3,19.863,485.357,63.659,499.964,75.708z"/>
<path fill="#F26721" d="M550.335,58.921c22.268,20.072,8.763,43.069-21.004,16.148c-4.023-3.644-27.117-38.057,10.053-66.521
	C579.173-17.739,561.29,43.221,550.335,58.921z"/>
<path fill="#F26721" stroke="#FFFFFF" stroke-width="3.585" d="M499.964,75.708c-20.373,27.876,12.467,45.401,27.373,3.651
	c1.825-5.11,7.296-47.088-38.691-55.848C446.3,19.863,485.357,63.659,499.964,75.708z"/>
<path fill="#F26721" stroke="#FFFFFF" stroke-width="3.1042" d="M550.335,58.921c22.268,20.072,8.763,43.069-21.004,16.148
	c-4.023-3.644-27.117-38.057,10.053-66.521C579.173-17.739,561.29,43.221,550.335,58.921z"/>
<path fill="none" stroke="#FFFFFF" stroke-width="4.1051" d="M499.964,75.708c-20.373,27.876,12.467,45.401,27.373,3.651
	c1.825-5.11,7.296-47.088-38.691-55.848C446.3,19.863,485.357,63.659,499.964,75.708z"/>
<path fill="none" stroke="#FFFFFF" stroke-width="4.1051" d="M550.335,58.921c22.268,20.072,8.763,43.069-21.004,16.148
	c-4.023-3.644-27.117-38.057,10.053-66.521C579.173-17.739,561.29,43.221,550.335,58.921z"/>
<g>
	<path d="M59.009,135.354L93.712,68.57h22.034l-47.809,86.932c-3.457,6.047-8.545,9.068-15.264,9.068
		c-6.625,0-10.369-3.021-11.232-9.068L30.64,68.57h22.033L59.009,135.354z"/>
	<path d="M116.354,164.195H99.389l16.497-77.688h16.965L116.354,164.195z"/>
	<path d="M163.216,140.813l28.197-54.305h16.9l-38.844,70.689c-2.809,4.916-6.942,7.373-12.402,7.373
		c-5.382,0-8.424-2.457-9.126-7.373l-8.774-70.689h18.9L163.216,140.813z"/>
	<path d="M219.897,93.3c1.17-2.34,3.12-4.25,5.851-5.732c2.418-1.248,5.03-1.872,7.839-1.872c2.886,0,5.187,0.624,6.903,1.872
		c2.105,1.326,3.275,3.236,3.51,5.732l7.254,70.896h-17.784l-1.755-16.625h-22.698l-8.774,16.625h-17.784L219.897,93.3z
		 M228.087,111.446L217.44,131.57h12.637L228.087,111.446z"/>
</g>
<g>
	<path fill="#FFFFFF" d="M55.009,131.354L89.712,64.57h22.034l-47.809,86.932c-3.457,6.047-8.545,9.068-15.264,9.068
		c-6.625,0-10.369-3.021-11.232-9.068L26.64,64.57h22.033L55.009,131.354z"/>
	<path fill="#FFFFFF" d="M112.354,160.195H95.389l16.497-77.688h16.965L112.354,160.195z"/>
	<path fill="#FFFFFF" d="M159.216,136.813l28.197-54.305h17.9l-38.844,70.689c-2.809,4.916-6.942,7.373-12.402,7.373
		c-5.382,0-8.424-2.457-9.126-7.373l-8.774-70.689h17.9L159.216,136.813z"/>
	<path fill="#FFFFFF" d="M215.897,89.3c1.17-2.34,3.12-4.25,5.851-5.732c2.418-1.248,5.03-1.872,7.839-1.872
		c2.886,0,5.187,0.624,6.903,1.872c2.105,1.326,3.275,3.236,3.51,5.732l7.254,70.896h-17.784l-1.755-16.625h-22.698l-8.774,16.625
		h-17.784L215.897,89.3z M224.087,107.446L213.44,127.57h12.637L224.087,107.446z"/>
	<path fill="#FFFFFF" d="M273.658,160.195c-5.473,0-9.744-1.967-12.816-5.904c-3.168-3.936-4.129-8.688-2.879-14.258l11.809-55.445
		c1.15-5.375,4.078-10.08,8.783-14.113c4.8-3.936,9.937-5.904,15.408-5.904h42.912l-4.465,20.875h-37.294
		c-1.25,0-2.449,0.457-3.603,1.369c-1.151,0.912-1.871,2.041-2.158,3.385l-9.361,44.223c-0.289,1.346-0.048,2.498,0.721,3.459
		s1.776,1.439,3.023,1.439h37.297l-4.464,20.875H273.658z"/>
	<path fill="#FFFFFF" d="M341.372,160.195h-16.965l16.497-77.688h16.966L341.372,160.195z"/>
	<path fill="#FFFFFF" d="M381.387,160.195H364.42l12.871-60.75h-16.497l3.626-16.938h49.959l-3.626,16.938h-16.496L381.387,160.195z
		"/>
	<path fill="#FFFFFF" d="M420.112,160.195c-4.524,0-8.034-1.599-10.53-4.797c-2.574-3.119-3.313-6.98-2.222-11.583l9.593-45.045
		c0.937-4.445,3.276-8.268,7.021-11.466c3.9-3.197,8.111-4.797,12.637-4.797h34.748l-3.626,16.938h-30.188
		c-1.092,0-2.087,0.372-2.983,1.115s-1.463,1.662-1.695,2.757l-1.99,9.503h34.048l-3.628,16.938h-34.047l-1.987,9.509
		c-0.235,1.096-0.06,2.035,0.524,2.817c0.585,0.783,1.424,1.174,2.518,1.174h30.186l-3.628,16.938H420.112z"/>
</g>
<polygon fill="#FFFFFF" points="443.595,74.252 445.854,79.047 464.588,73.807 460.247,65.547 "/>
<path d="M546.198,58.172c14.413-23.941,17.254-46.694,12.926-52.725c8.031,7.219-2.629,42.609-11.486,53.803L546.198,58.172z"/>
<path d="M530.382,73.284c0,0,6.126,5.621,10.685,8.084c3.712,2.478,18.339,9.119,18.298-3.416c0,0-2.605,10.802-18.283,1.472
	c-8.814-5.245-10.525-8.169-10.525-8.169L530.382,73.284z"/>
<path d="M526.304,74.701c0,0-2.563,19.116-16.451,25.899c-11.832,5.778-14.407-4.698-14.271-7.623c0,0,2.729,9.982,11.716,5.995
	c8.009-3.553,14.604-13.499,17.526-26.354C524.824,72.754,526.304,74.701,526.304,74.701z"/>
<path d="M502.813,75.411c0,0-23.127-18.614-29.43-35.553c12.346,19.079,31.444,33.428,31.444,33.428L502.813,75.411z"/>
</svg>
